<?xml version='1.0' encoding='utf-8'?>
<svg xmlns:xlink="http://www.w3.org/1999/xlink" xmlns="http://www.w3.org/2000/svg" viewBox="0 0 841.89 1190.55"><defs><style>.cls-1{fill:none;}.cls-2{clip-path:url(#clip-path);}.cls-3{fill:url(#Degradado_sin_nombre_16);}.cls-4{fill:url(#Degradado_sin_nombre_15);}.cls-5{fill:url(#Degradado_sin_nombre_14);}.cls-6{fill:url(#Degradado_sin_nombre_13);}.cls-7{fill:url(#Degradado_sin_nombre_12);}.cls-8{fill:url(#Degradado_sin_nombre_21);}.cls-9{fill:url(#Degradado_sin_nombre_35);}.cls-10{fill:url(#Degradado_sin_nombre_9);}.cls-11{fill:url(#Degradado_sin_nombre_8);}.cls-12{fill:url(#Degradado_sin_nombre_6);}.cls-13{fill:url(#Degradado_sin_nombre_5);}.cls-14{fill:url(#Degradado_sin_nombre_9-2);}.cls-15{fill:url(#Degradado_sin_nombre_8-2);}.cls-16{fill:url(#Degradado_sin_nombre_6-2);}.cls-17{fill:url(#Degradado_sin_nombre_5-2);}</style><clipPath id="clip-path"><rect class="cls-1" width="841.89" height="1190.55"/></clipPath><linearGradient id="Degradado_sin_nombre_16" x1="568.5" y1="1018.56" x2="265.18" y2="148.43" gradientUnits="userSpaceOnUse"><stop offset="0" stop-color="#eb5c3b"/><stop offset="0.39" stop-color="#d74a69"/><stop offset="1" stop-color="#20406c"/></linearGradient><linearGradient id="Degradado_sin_nombre_15" x1="405.09" y1="1190.55" x2="405.09" y2="780.13" gradientUnits="userSpaceOnUse"><stop offset="0" stop-color="#f9ea49"/><stop offset="0.95" stop-color="#e84628"/></linearGradient><radialGradient id="Degradado_sin_nombre_14" cx="388.49" cy="971.08" r="495.4" gradientUnits="userSpaceOnUse"><stop offset="0.05" stop-color="#e94f2a"/><stop offset="0.49" stop-color="#cd1962"/></radialGradient><radialGradient id="Degradado_sin_nombre_13" cx="380.44" cy="1033.67" r="334.97" gradientUnits="userSpaceOnUse"><stop offset="0" stop-color="#e8580d"/><stop offset="1" stop-color="#821d58"/></radialGradient><radialGradient id="Degradado_sin_nombre_12" cx="375.31" cy="1060.96" fx="354.87386931219186" fy="957.4852948925819" r="324.37" gradientUnits="userSpaceOnUse"><stop offset="0" stop-color="#f15a24"/><stop offset="1" stop-color="#2f2e61"/></radialGradient><linearGradient id="Degradado_sin_nombre_21" x1="740.54" y1="193.82" x2="679.8" y2="129.94" gradientUnits="userSpaceOnUse"><stop offset="0" stop-color="#e53362"/><stop offset="1" stop-color="#eb5b2b"/></linearGradient><linearGradient id="Degradado_sin_nombre_35" x1="424.66" y1="11.99" x2="424.66" y2="868.67" gradientUnits="userSpaceOnUse"><stop offset="0" stop-color="#e53362"/><stop offset="0.5" stop-color="#eb5b2b"/><stop offset="1" stop-color="#f2e68c"/></linearGradient><linearGradient id="Degradado_sin_nombre_9" x1="-4870.74" y1="1102.85" x2="-4717.91" y2="1102.85" gradientTransform="matrix(-1, 0, 0, 1, -4623.77, 0)" gradientUnits="userSpaceOnUse"><stop offset="0" stop-color="#397140"/><stop offset="1" stop-color="#39332c"/></linearGradient><linearGradient id="Degradado_sin_nombre_8" x1="-4897.47" y1="1092.89" x2="-4848.8" y2="1093.09" gradientTransform="matrix(-1, 0, 0, 1, -4623.77, 0)" gradientUnits="userSpaceOnUse"><stop offset="0" stop-color="#5a783e"/><stop offset="1" stop-color="#2b302c"/></linearGradient><linearGradient id="Degradado_sin_nombre_6" x1="-4880.88" y1="1153.27" x2="-4858.76" y2="1142.81" gradientTransform="matrix(-1, 0, 0, 1, -4623.77, 0)" gradientUnits="userSpaceOnUse"><stop offset="0" stop-color="#6d6438"/><stop offset="1" stop-color="#534629"/></linearGradient><linearGradient id="Degradado_sin_nombre_5" x1="102.6" y1="1208.72" x2="133.26" y2="1107.98" gradientUnits="userSpaceOnUse"><stop offset="0" stop-opacity="0"/><stop offset="1"/></linearGradient><linearGradient id="Degradado_sin_nombre_9-2" x1="615.04" y1="1102.85" x2="767.87" y2="1102.85" gradientTransform="matrix(1, 0, 0, 1, 0, 0)" xlink:href="#Degradado_sin_nombre_9"/><linearGradient id="Degradado_sin_nombre_8-2" x1="588.32" y1="1092.89" x2="636.98" y2="1093.09" gradientTransform="matrix(1, 0, 0, 1, 0, 0)" xlink:href="#Degradado_sin_nombre_8"/><linearGradient id="Degradado_sin_nombre_6-2" x1="604.91" y1="1153.27" x2="627.03" y2="1142.81" gradientTransform="matrix(1, 0, 0, 1, 0, 0)" xlink:href="#Degradado_sin_nombre_6"/><linearGradient id="Degradado_sin_nombre_5-2" x1="-4415.1" y1="1206.4" x2="-4386.39" y2="1112.07" gradientTransform="matrix(-1, 0, 0, 1, -3665.42, 0)" xlink:href="#Degradado_sin_nombre_5"/></defs><g id="Capa_2" data-name="Capa 2"><g id="Capa_1-2" data-name="Capa 1"><g class="cls-2"><rect class="cls-3" width="841.89" height="1190.55"/><path class="cls-4" d="M296.45,1190.55H513.72A219.47,219.47,0,0,0,624.66,999.7c0-121.27-98.31-219.57-219.57-219.57S185.51,878.43,185.51,999.7A219.47,219.47,0,0,0,296.45,1190.55Z"/><path class="cls-5" d="M0,1190.55H841.89V943.49c-24.69,2.18-49.1,18.9-107.95,26.59-86.75,11.35-96.37-16.77-197.11-10.21C442.67,966,444.57,991,383.64,982.34c-68.08-9.68-81.27-42.43-157.28-44.94-41.58-1.37-44.67,8.2-90.89,4.09C86.26,937.11,67.61,924.3,31.3,931.28A135,135,0,0,0,0,941.45Z"/><path class="cls-6" d="M0,1190.55H841.89V1019.17c-23.76-18.2-23.68-18.17-24.21-18.45C661.61,917.38,509,1112.55,328.49,1044.64c-95.76-36-95.26-106.94-181.28-112.34C85.64,928.43,39.21,961.87,0,990.78Z"/><path class="cls-7" d="M0,1190.55H841.89V1026.1c-47.39,10.05-77.4,52.13-161.57,74.71-196.64,52.74-254.8-117.46-533.11-110.3C95.77,991.83,45.37,999,0,992.12Z"/><path class="cls-8" d="M736.3,147.22a40.44,40.44,0,0,1-78.78,12.86,46.06,46.06,0,1,0,51.2-51.21A40.46,40.46,0,0,1,736.3,147.22Z"/><path class="cls-9" d="M308.06,273.06a6.64,6.64,0,1,1-6.63-6.64A6.63,6.63,0,0,1,308.06,273.06Zm105.2,147.58a7.15,7.15,0,1,0,7.14,7.15A7.15,7.15,0,0,0,413.26,420.64ZM201.85,479.29a7.15,7.15,0,1,0,7.15,7.15A7.15,7.15,0,0,0,201.85,479.29ZM585.38,683.11a7.15,7.15,0,1,0,7.15,7.14A7.15,7.15,0,0,0,585.38,683.11Zm137.31-435a7.15,7.15,0,1,0,7.15,7.15A7.15,7.15,0,0,0,722.69,248.12Zm-232.33-8a3.32,3.32,0,1,1-3.32-3.32A3.32,3.32,0,0,1,490.36,240.13ZM542.3,46.28A3.32,3.32,0,1,1,539,43,3.32,3.32,0,0,1,542.3,46.28Zm60.24,172a3.32,3.32,0,1,1-3.32-3.32A3.32,3.32,0,0,1,602.54,218.31ZM96.4,262.42a3.32,3.32,0,1,1-3.31-3.32A3.32,3.32,0,0,1,96.4,262.42Zm49.54,441a3.32,3.32,0,1,1-3.32-3.32A3.32,3.32,0,0,1,145.94,703.44ZM358,342.37a1.9,1.9,0,1,1-1.9-1.9A1.9,1.9,0,0,1,358,342.37ZM212.8,223.53a1.9,1.9,0,1,1-1.9-1.9A1.9,1.9,0,0,1,212.8,223.53Zm143.26-30.64a1.9,1.9,0,1,1-1.9-1.9A1.9,1.9,0,0,1,356.06,192.89Zm-17.5-103a1.9,1.9,0,1,1-1.9-1.9A1.9,1.9,0,0,1,338.56,89.89Zm-58.37-68.1a1.9,1.9,0,1,1-1.9-1.9A1.91,1.91,0,0,1,280.19,21.79ZM234.39,88a1.9,1.9,0,1,1-1.9-1.9A1.9,1.9,0,0,1,234.39,88ZM271.3,393.41a1.9,1.9,0,1,1-1.9-1.9A1.9,1.9,0,0,1,271.3,393.41Zm-138,119.28a1.9,1.9,0,1,1-1.9-1.9A1.9,1.9,0,0,1,133.28,512.69ZM63.41,623.14a1.9,1.9,0,1,1-1.9-1.9A1.91,1.91,0,0,1,63.41,623.14ZM383.5,713.6a1.9,1.9,0,1,1-1.9-1.9A1.9,1.9,0,0,1,383.5,713.6ZM739,459.6a1.9,1.9,0,1,1-1.9-1.9A1.9,1.9,0,0,1,739,459.6ZM364.09,546.4a1.9,1.9,0,1,1-1.9-1.9A1.9,1.9,0,0,1,364.09,546.4Zm37.79-272.31a1.9,1.9,0,1,1-1.9-1.9A1.9,1.9,0,0,1,401.88,274.09ZM661.32,74.38a1.9,1.9,0,1,1-1.9-1.9A1.9,1.9,0,0,1,661.32,74.38Zm-171,61.56a1.9,1.9,0,1,1-1.9-1.9A1.9,1.9,0,0,1,490.36,135.94ZM471.47,347.11a1.9,1.9,0,1,1-1.9-1.9A1.91,1.91,0,0,1,471.47,347.11ZM78.3,51.5a1.9,1.9,0,1,1-1.9-1.9A1.9,1.9,0,0,1,78.3,51.5ZM553.5,308.4a1.9,1.9,0,1,1-1.9-1.9A1.9,1.9,0,0,1,553.5,308.4Zm95.89,86.91a1.9,1.9,0,1,1-1.89-1.9A1.9,1.9,0,0,1,649.39,395.31Zm75.2,274.34a1.9,1.9,0,1,1-1.9-1.9A1.9,1.9,0,0,1,724.59,669.65Zm-488.3,11.56a1.9,1.9,0,1,1-1.9-1.9A1.91,1.91,0,0,1,236.29,681.21ZM154,340.47a1.9,1.9,0,1,1-1.9-1.9A1.9,1.9,0,0,1,154,340.47ZM535.67,447.33a1.9,1.9,0,1,1-1.9-1.9A1.9,1.9,0,0,1,535.67,447.33ZM87.33,795.3a1.9,1.9,0,1,1-1.9-1.9A1.91,1.91,0,0,1,87.33,795.3Zm404.93-247a1.9,1.9,0,1,1-1.9-1.9A1.9,1.9,0,0,1,492.26,548.3Zm256-181.61a1.9,1.9,0,1,1-1.9-1.9A1.9,1.9,0,0,1,748.29,366.69ZM597.8,550.2a1.9,1.9,0,1,1-1.9-1.9A1.9,1.9,0,0,1,597.8,550.2ZM768.39,46.28a1.9,1.9,0,1,1-1.9-1.9A1.9,1.9,0,0,1,768.39,46.28ZM624.61,811.05a1.9,1.9,0,1,1-1.9-1.9A1.9,1.9,0,0,1,624.61,811.05Zm-286-174.78a1.9,1.9,0,1,1-1.9-1.9A1.9,1.9,0,0,1,338.56,636.27ZM93.6,188.81a4.09,4.09,0,1,1-4.09-4.09A4.09,4.09,0,0,1,93.6,188.81Zm3.06,235.4a3.58,3.58,0,1,1-3.57-3.57A3.57,3.57,0,0,1,96.66,424.21ZM789.71,753.83a3.58,3.58,0,1,1-3.58-3.57A3.58,3.58,0,0,1,789.71,753.83Z"/><polygon class="cls-10" points="246.98 1043.43 157.69 1038 94.15 1151.21 225.66 1167.7 246.98 1043.43"/><polygon class="cls-11" points="246.98 1043.43 296.04 1142.37 233.86 1119.9 246.98 1043.43"/><polygon class="cls-12" points="233.86 1119.9 296.04 1142.37 225.66 1167.7 233.86 1119.9"/><polygon class="cls-13" points="94.15 1151.21 0 1182.51 0 1190.55 178.58 1190.55 225.66 1167.7 94.15 1151.21"/><polygon class="cls-14" points="615.04 1043.43 704.33 1038 767.87 1151.21 636.36 1167.7 615.04 1043.43"/><polygon class="cls-15" points="615.04 1043.43 565.98 1142.37 628.16 1119.9 615.04 1043.43"/><polygon class="cls-16" points="628.16 1119.9 565.98 1142.37 636.36 1167.7 628.16 1119.9"/><polygon class="cls-17" points="767.75 1150.96 841.89 1175.6 841.89 1190.55 683.84 1190.55 636.23 1167.45 767.75 1150.96"/></g></g></g></svg>